# xmcd
#
# Track frame offsets:
#	150
#	12010
#	30160
#	39870
#	52862
#	64872
#	75227
#	85554
#	95792
#	107210
#	118617
#	132777
#	146092
#	160795
#
# Disc length: 2309 seconds
#
# Revision: 0
# Processed by: cddbd v1.4PL0 Copyright (c) Steve Scherf et al.
# Submitted via: EasyCDDAExtractor 4.6.9.1
#
DISCID=9d09030e
DTITLE=Johnny Bush - 14 Greatest Hits
DYEAR=1900
DGENRE=Country
TTITLE0=Undo The Right
TTITLE1=You Gave Me A Mountain
TTITLE2=Each Time
TTITLE3=City Lights
TTITLE4=Jim, Jack, and Rose
TTITLE5=You Ought To Hear Me Cry
TTITLE6=Lonely Street
TTITLE7=I'll Be There
TTITLE8=Warmth Of The Wine
TTITLE9=What A Way To Live
TTITLE10=My Joy
TTITLE11=You'll Never Leave Me Completely
TTITLE12=She Just Made Me Love You More
TTITLE13=Put Me Out Of My Memory
EXTD=
EXTT0=
EXTT1=
EXTT2=
EXTT3=
EXTT4=
EXTT5=
EXTT6=
EXTT7=
EXTT8=
EXTT9=
EXTT10=
EXTT11=
EXTT12=
EXTT13=
PLAYORDER=
